<svg xmlns="http://www.w3.org/2000/svg"
xmlns:xlink="http://www.w3.org/2020/xlink" version="1.1"
viewBox=" -15 -30 285 285" preserveAspectRatio="xMinYMin meet">
<g transform=" scale(1,-1)">
<rect x="0" y="0" width="15" height="15" fill="white" stroke="black" stroke-width="0.5"/>
<rect x="0" y="-15" width="15" height="15" fill="white" stroke="black" stroke-width="0.5"/>
<rect x="0" y="-30" width="15" height="15" fill="white" stroke="black" stroke-width="0.5"/>
<rect x="0" y="-45" width="15" height="15" fill="white" stroke="black" stroke-width="0.5"/>
<rect x="0" y="-60" width="15" height="15" fill="white" stroke="black" stroke-width="0.5"/>
<rect x="0" y="-75" width="15" height="15" fill="white" stroke="black" stroke-width="0.5"/>
<rect x="0" y="-90" width="15" height="15" fill="white" stroke="black" stroke-width="0.5"/>
<rect x="0" y="-105" width="15" height="15" fill="white" stroke="black" stroke-width="0.5"/>
<rect x="0" y="-120" width="15" height="15" fill="white" stroke="black" stroke-width="0.5"/>
<rect x="0" y="-135" width="15" height="15" fill="white" stroke="black" stroke-width="0.5"/>
<rect x="0" y="-150" width="15" height="15" fill="white" stroke="black" stroke-width="0.5"/>
<rect x="0" y="-165" width="15" height="15" fill="white" stroke="black" stroke-width="0.5"/>
<rect x="0" y="-180" width="15" height="15" fill="white" stroke="black" stroke-width="0.5"/>
<rect x="0" y="-195" width="15" height="15" fill="white" stroke="black" stroke-width="0.5"/>
<rect x="0" y="-210" width="15" height="15" fill="white" stroke="black" stroke-width="0.5"/>
<rect x="0" y="-225" width="15" height="15" fill="white" stroke="black" stroke-width="0.5"/>
<rect x="0" y="-240" width="15" height="15" fill="white" stroke="black" stroke-width="0.5"/>
<rect x="15" y="0" width="15" height="15" fill="white" stroke="black" stroke-width="0.5"/>
<rect x="15" y="-15" width="15" height="15" fill="white" stroke="black" stroke-width="0.5"/>
<rect x="15" y="-30" width="15" height="15" fill="white" stroke="black" stroke-width="0.5"/>
<rect x="15" y="-45" width="15" height="15" fill="white" stroke="black" stroke-width="0.5"/>
<rect x="15" y="-60" width="15" height="15" fill="white" stroke="black" stroke-width="0.5"/>
<rect x="15" y="-75" width="15" height="15" fill="white" stroke="black" stroke-width="0.5"/>
<rect x="15" y="-90" width="15" height="15" fill="white" stroke="black" stroke-width="0.5"/>
<rect x="15" y="-105" width="15" height="15" fill="white" stroke="black" stroke-width="0.5"/>
<rect x="15" y="-120" width="15" height="15" fill="white" stroke="black" stroke-width="0.5"/>
<rect x="15" y="-135" width="15" height="15" fill="white" stroke="black" stroke-width="0.5"/>
<rect x="15" y="-150" width="15" height="15" fill="white" stroke="black" stroke-width="0.5"/>
<rect x="15" y="-165" width="15" height="15" fill="white" stroke="black" stroke-width="0.5"/>
<rect x="15" y="-180" width="15" height="15" fill="white" stroke="black" stroke-width="0.5"/>
<rect x="15" y="-195" width="15" height="15" fill="white" stroke="black" stroke-width="0.5"/>
<rect x="15" y="-210" width="15" height="15" fill="white" stroke="black" stroke-width="0.5"/>
<rect x="15" y="-225" width="15" height="15" fill="white" stroke="black" stroke-width="0.5"/>
<rect x="15" y="-240" width="15" height="15" fill="white" stroke="black" stroke-width="0.5"/>
<rect x="30" y="0" width="15" height="15" fill="white" stroke="black" stroke-width="0.5"/>
<rect x="30" y="-15" width="15" height="15" fill="white" stroke="black" stroke-width="0.5"/>
<rect x="30" y="-30" width="15" height="15" fill="white" stroke="black" stroke-width="0.5"/>
<rect x="30" y="-45" width="15" height="15" fill="white" stroke="black" stroke-width="0.5"/>
<rect x="30" y="-60" width="15" height="15" fill="white" stroke="black" stroke-width="0.5"/>
<rect x="30" y="-75" width="15" height="15" fill="white" stroke="black" stroke-width="0.5"/>
<rect x="30" y="-90" width="15" height="15" fill="white" stroke="black" stroke-width="0.5"/>
<rect x="30" y="-105" width="15" height="15" fill="white" stroke="black" stroke-width="0.5"/>
<rect x="30" y="-120" width="15" height="15" fill="white" stroke="black" stroke-width="0.5"/>
<rect x="30" y="-135" width="15" height="15" fill="white" stroke="black" stroke-width="0.5"/>
<rect x="30" y="-150" width="15" height="15" fill="white" stroke="black" stroke-width="0.5"/>
<rect x="30" y="-165" width="15" height="15" fill="white" stroke="black" stroke-width="0.5"/>
<rect x="30" y="-180" width="15" height="15" fill="white" stroke="black" stroke-width="0.5"/>
<rect x="30" y="-195" width="15" height="15" fill="white" stroke="black" stroke-width="0.5"/>
<rect x="30" y="-210" width="15" height="15" fill="white" stroke="black" stroke-width="0.5"/>
<rect x="30" y="-225" width="15" height="15" fill="white" stroke="black" stroke-width="0.5"/>
<rect x="30" y="-240" width="15" height="15" fill="white" stroke="black" stroke-width="0.5"/>
<rect x="45" y="0" width="15" height="15" fill="white" stroke="black" stroke-width="0.5"/>
<rect x="45" y="-15" width="15" height="15" fill="white" stroke="black" stroke-width="0.5"/>
<rect x="45" y="-30" width="15" height="15" fill="white" stroke="black" stroke-width="0.5"/>
<rect x="45" y="-45" width="15" height="15" fill="white" stroke="black" stroke-width="0.5"/>
<rect x="45" y="-60" width="15" height="15" fill="white" stroke="black" stroke-width="0.5"/>
<rect x="45" y="-75" width="15" height="15" fill="white" stroke="black" stroke-width="0.5"/>
<rect x="45" y="-90" width="15" height="15" fill="white" stroke="black" stroke-width="0.5"/>
<rect x="45" y="-105" width="15" height="15" fill="white" stroke="black" stroke-width="0.5"/>
<rect x="45" y="-120" width="15" height="15" fill="white" stroke="black" stroke-width="0.5"/>
<rect x="45" y="-135" width="15" height="15" fill="white" stroke="black" stroke-width="0.5"/>
<rect x="45" y="-150" width="15" height="15" fill="white" stroke="black" stroke-width="0.5"/>
<rect x="45" y="-165" width="15" height="15" fill="white" stroke="black" stroke-width="0.5"/>
<rect x="45" y="-180" width="15" height="15" fill="white" stroke="black" stroke-width="0.5"/>
<rect x="45" y="-195" width="15" height="15" fill="white" stroke="black" stroke-width="0.5"/>
<rect x="45" y="-210" width="15" height="15" fill="white" stroke="black" stroke-width="0.5"/>
<rect x="45" y="-225" width="15" height="15" fill="white" stroke="black" stroke-width="0.5"/>
<rect x="45" y="-240" width="15" height="15" fill="white" stroke="black" stroke-width="0.5"/>
<rect x="60" y="0" width="15" height="15" fill="white" stroke="black" stroke-width="0.5"/>
<rect x="60" y="-15" width="15" height="15" fill="white" stroke="black" stroke-width="0.5"/>
<rect x="60" y="-30" width="15" height="15" fill="white" stroke="black" stroke-width="0.5"/>
<rect x="60" y="-45" width="15" height="15" fill="white" stroke="black" stroke-width="0.5"/>
<rect x="60" y="-60" width="15" height="15" fill="white" stroke="black" stroke-width="0.5"/>
<rect x="60" y="-75" width="15" height="15" fill="white" stroke="black" stroke-width="0.5"/>
<rect x="60" y="-90" width="15" height="15" fill="white" stroke="black" stroke-width="0.5"/>
<rect x="60" y="-105" width="15" height="15" fill="white" stroke="black" stroke-width="0.5"/>
<rect x="60" y="-120" width="15" height="15" fill="white" stroke="black" stroke-width="0.5"/>
<rect x="60" y="-135" width="15" height="15" fill="white" stroke="black" stroke-width="0.5"/>
<rect x="60" y="-150" width="15" height="15" fill="white" stroke="black" stroke-width="0.5"/>
<rect x="60" y="-165" width="15" height="15" fill="white" stroke="black" stroke-width="0.5"/>
<rect x="60" y="-180" width="15" height="15" fill="white" stroke="black" stroke-width="0.5"/>
<rect x="60" y="-195" width="15" height="15" fill="white" stroke="black" stroke-width="0.5"/>
<rect x="60" y="-210" width="15" height="15" fill="white" stroke="black" stroke-width="0.5"/>
<rect x="60" y="-225" width="15" height="15" fill="white" stroke="black" stroke-width="0.5"/>
<rect x="60" y="-240" width="15" height="15" fill="white" stroke="black" stroke-width="0.5"/>
<rect x="75" y="0" width="15" height="15" fill="white" stroke="black" stroke-width="0.5"/>
<rect x="75" y="-15" width="15" height="15" fill="white" stroke="black" stroke-width="0.5"/>
<rect x="75" y="-30" width="15" height="15" fill="white" stroke="black" stroke-width="0.5"/>
<rect x="75" y="-45" width="15" height="15" fill="white" stroke="black" stroke-width="0.5"/>
<rect x="75" y="-60" width="15" height="15" fill="white" stroke="black" stroke-width="0.5"/>
<rect x="75" y="-75" width="15" height="15" fill="white" stroke="black" stroke-width="0.5"/>
<rect x="75" y="-90" width="15" height="15" fill="white" stroke="black" stroke-width="0.5"/>
<rect x="75" y="-105" width="15" height="15" fill="white" stroke="black" stroke-width="0.5"/>
<rect x="75" y="-120" width="15" height="15" fill="white" stroke="black" stroke-width="0.5"/>
<rect x="75" y="-135" width="15" height="15" fill="white" stroke="black" stroke-width="0.5"/>
<rect x="75" y="-150" width="15" height="15" fill="white" stroke="black" stroke-width="0.5"/>
<rect x="75" y="-165" width="15" height="15" fill="white" stroke="black" stroke-width="0.5"/>
<rect x="75" y="-180" width="15" height="15" fill="white" stroke="black" stroke-width="0.5"/>
<rect x="75" y="-195" width="15" height="15" fill="white" stroke="black" stroke-width="0.5"/>
<rect x="75" y="-210" width="15" height="15" fill="white" stroke="black" stroke-width="0.5"/>
<rect x="75" y="-225" width="15" height="15" fill="white" stroke="black" stroke-width="0.5"/>
<rect x="75" y="-240" width="15" height="15" fill="white" stroke="black" stroke-width="0.5"/>
<rect x="90" y="0" width="15" height="15" fill="white" stroke="black" stroke-width="0.5"/>
<rect x="90" y="-15" width="15" height="15" fill="white" stroke="black" stroke-width="0.5"/>
<rect x="90" y="-30" width="15" height="15" fill="white" stroke="black" stroke-width="0.5"/>
<rect x="90" y="-45" width="15" height="15" fill="white" stroke="black" stroke-width="0.5"/>
<rect x="90" y="-60" width="15" height="15" fill="white" stroke="black" stroke-width="0.5"/>
<rect x="90" y="-75" width="15" height="15" fill="white" stroke="black" stroke-width="0.5"/>
<rect x="90" y="-90" width="15" height="15" fill="white" stroke="black" stroke-width="0.5"/>
<rect x="90" y="-105" width="15" height="15" fill="white" stroke="black" stroke-width="0.5"/>
<rect x="90" y="-120" width="15" height="15" fill="white" stroke="black" stroke-width="0.5"/>
<rect x="90" y="-135" width="15" height="15" fill="white" stroke="black" stroke-width="0.5"/>
<rect x="90" y="-150" width="15" height="15" fill="white" stroke="black" stroke-width="0.5"/>
<rect x="90" y="-165" width="15" height="15" fill="white" stroke="black" stroke-width="0.5"/>
<rect x="90" y="-180" width="15" height="15" fill="white" stroke="black" stroke-width="0.5"/>
<rect x="90" y="-195" width="15" height="15" fill="white" stroke="black" stroke-width="0.5"/>
<rect x="90" y="-210" width="15" height="15" fill="white" stroke="black" stroke-width="0.5"/>
<rect x="90" y="-225" width="15" height="15" fill="white" stroke="black" stroke-width="0.5"/>
<rect x="90" y="-240" width="15" height="15" fill="white" stroke="black" stroke-width="0.5"/>
<rect x="105" y="0" width="15" height="15" fill="white" stroke="black" stroke-width="0.5"/>
<rect x="105" y="-15" width="15" height="15" fill="white" stroke="black" stroke-width="0.5"/>
<rect x="105" y="-30" width="15" height="15" fill="white" stroke="black" stroke-width="0.5"/>
<rect x="105" y="-45" width="15" height="15" fill="white" stroke="black" stroke-width="0.5"/>
<rect x="105" y="-60" width="15" height="15" fill="white" stroke="black" stroke-width="0.5"/>
<rect x="105" y="-75" width="15" height="15" fill="white" stroke="black" stroke-width="0.5"/>
<rect x="105" y="-90" width="15" height="15" fill="white" stroke="black" stroke-width="0.5"/>
<rect x="105" y="-105" width="15" height="15" fill="white" stroke="black" stroke-width="0.5"/>
<rect x="105" y="-120" width="15" height="15" fill="white" stroke="black" stroke-width="0.5"/>
<rect x="105" y="-135" width="15" height="15" fill="white" stroke="black" stroke-width="0.5"/>
<rect x="105" y="-150" width="15" height="15" fill="white" stroke="black" stroke-width="0.5"/>
<rect x="105" y="-165" width="15" height="15" fill="white" stroke="black" stroke-width="0.5"/>
<rect x="105" y="-180" width="15" height="15" fill="white" stroke="black" stroke-width="0.5"/>
<rect x="105" y="-195" width="15" height="15" fill="white" stroke="black" stroke-width="0.5"/>
<rect x="105" y="-210" width="15" height="15" fill="white" stroke="black" stroke-width="0.5"/>
<rect x="105" y="-225" width="15" height="15" fill="white" stroke="black" stroke-width="0.5"/>
<rect x="105" y="-240" width="15" height="15" fill="white" stroke="black" stroke-width="0.5"/>
<rect x="120" y="0" width="15" height="15" fill="white" stroke="black" stroke-width="0.5"/>
<rect x="120" y="-15" width="15" height="15" fill="white" stroke="black" stroke-width="0.5"/>
<rect x="120" y="-30" width="15" height="15" fill="white" stroke="black" stroke-width="0.5"/>
<rect x="120" y="-45" width="15" height="15" fill="white" stroke="black" stroke-width="0.5"/>
<rect x="120" y="-60" width="15" height="15" fill="white" stroke="black" stroke-width="0.5"/>
<rect x="120" y="-75" width="15" height="15" fill="white" stroke="black" stroke-width="0.5"/>
<rect x="120" y="-90" width="15" height="15" fill="white" stroke="black" stroke-width="0.5"/>
<rect x="120" y="-105" width="15" height="15" fill="white" stroke="black" stroke-width="0.5"/>
<rect x="120" y="-120" width="15" height="15" fill="white" stroke="black" stroke-width="0.5"/>
<rect x="120" y="-135" width="15" height="15" fill="white" stroke="black" stroke-width="0.5"/>
<rect x="120" y="-150" width="15" height="15" fill="white" stroke="black" stroke-width="0.5"/>
<rect x="120" y="-165" width="15" height="15" fill="white" stroke="black" stroke-width="0.5"/>
<rect x="120" y="-180" width="15" height="15" fill="white" stroke="black" stroke-width="0.5"/>
<rect x="120" y="-195" width="15" height="15" fill="white" stroke="black" stroke-width="0.5"/>
<rect x="120" y="-210" width="15" height="15" fill="white" stroke="black" stroke-width="0.5"/>
<rect x="120" y="-225" width="15" height="15" fill="white" stroke="black" stroke-width="0.5"/>
<rect x="120" y="-240" width="15" height="15" fill="white" stroke="black" stroke-width="0.5"/>
<rect x="135" y="0" width="15" height="15" fill="white" stroke="black" stroke-width="0.5"/>
<rect x="135" y="-15" width="15" height="15" fill="white" stroke="black" stroke-width="0.5"/>
<rect x="135" y="-30" width="15" height="15" fill="white" stroke="black" stroke-width="0.5"/>
<rect x="135" y="-45" width="15" height="15" fill="white" stroke="black" stroke-width="0.5"/>
<rect x="135" y="-60" width="15" height="15" fill="white" stroke="black" stroke-width="0.5"/>
<rect x="135" y="-75" width="15" height="15" fill="white" stroke="black" stroke-width="0.5"/>
<rect x="135" y="-90" width="15" height="15" fill="white" stroke="black" stroke-width="0.5"/>
<rect x="135" y="-105" width="15" height="15" fill="white" stroke="black" stroke-width="0.5"/>
<rect x="135" y="-120" width="15" height="15" fill="white" stroke="black" stroke-width="0.5"/>
<rect x="135" y="-135" width="15" height="15" fill="white" stroke="black" stroke-width="0.5"/>
<rect x="135" y="-150" width="15" height="15" fill="white" stroke="black" stroke-width="0.5"/>
<rect x="135" y="-165" width="15" height="15" fill="white" stroke="black" stroke-width="0.5"/>
<rect x="135" y="-180" width="15" height="15" fill="white" stroke="black" stroke-width="0.5"/>
<rect x="135" y="-195" width="15" height="15" fill="white" stroke="black" stroke-width="0.5"/>
<rect x="135" y="-210" width="15" height="15" fill="white" stroke="black" stroke-width="0.5"/>
<rect x="135" y="-225" width="15" height="15" fill="white" stroke="black" stroke-width="0.5"/>
<rect x="135" y="-240" width="15" height="15" fill="white" stroke="black" stroke-width="0.5"/>
<rect x="150" y="0" width="15" height="15" fill="white" stroke="black" stroke-width="0.5"/>
<rect x="150" y="-15" width="15" height="15" fill="white" stroke="black" stroke-width="0.5"/>
<rect x="150" y="-30" width="15" height="15" fill="white" stroke="black" stroke-width="0.5"/>
<rect x="150" y="-45" width="15" height="15" fill="white" stroke="black" stroke-width="0.5"/>
<rect x="150" y="-60" width="15" height="15" fill="white" stroke="black" stroke-width="0.5"/>
<rect x="150" y="-75" width="15" height="15" fill="white" stroke="black" stroke-width="0.5"/>
<rect x="150" y="-90" width="15" height="15" fill="white" stroke="black" stroke-width="0.5"/>
<rect x="150" y="-105" width="15" height="15" fill="white" stroke="black" stroke-width="0.5"/>
<rect x="150" y="-120" width="15" height="15" fill="white" stroke="black" stroke-width="0.5"/>
<rect x="150" y="-135" width="15" height="15" fill="white" stroke="black" stroke-width="0.5"/>
<rect x="150" y="-150" width="15" height="15" fill="white" stroke="black" stroke-width="0.5"/>
<rect x="150" y="-165" width="15" height="15" fill="white" stroke="black" stroke-width="0.5"/>
<rect x="150" y="-180" width="15" height="15" fill="white" stroke="black" stroke-width="0.5"/>
<rect x="150" y="-195" width="15" height="15" fill="white" stroke="black" stroke-width="0.5"/>
<rect x="150" y="-210" width="15" height="15" fill="white" stroke="black" stroke-width="0.5"/>
<rect x="150" y="-225" width="15" height="15" fill="white" stroke="black" stroke-width="0.5"/>
<rect x="150" y="-240" width="15" height="15" fill="white" stroke="black" stroke-width="0.5"/>
<rect x="165" y="0" width="15" height="15" fill="white" stroke="black" stroke-width="0.5"/>
<rect x="165" y="-15" width="15" height="15" fill="white" stroke="black" stroke-width="0.5"/>
<rect x="165" y="-30" width="15" height="15" fill="white" stroke="black" stroke-width="0.5"/>
<rect x="165" y="-45" width="15" height="15" fill="white" stroke="black" stroke-width="0.5"/>
<rect x="165" y="-60" width="15" height="15" fill="white" stroke="black" stroke-width="0.5"/>
<rect x="165" y="-75" width="15" height="15" fill="white" stroke="black" stroke-width="0.5"/>
<rect x="165" y="-90" width="15" height="15" fill="white" stroke="black" stroke-width="0.5"/>
<rect x="165" y="-105" width="15" height="15" fill="white" stroke="black" stroke-width="0.5"/>
<rect x="165" y="-120" width="15" height="15" fill="white" stroke="black" stroke-width="0.5"/>
<rect x="165" y="-135" width="15" height="15" fill="white" stroke="black" stroke-width="0.5"/>
<rect x="165" y="-150" width="15" height="15" fill="white" stroke="black" stroke-width="0.5"/>
<rect x="165" y="-165" width="15" height="15" fill="white" stroke="black" stroke-width="0.5"/>
<rect x="165" y="-180" width="15" height="15" fill="white" stroke="black" stroke-width="0.5"/>
<rect x="165" y="-195" width="15" height="15" fill="white" stroke="black" stroke-width="0.5"/>
<rect x="165" y="-210" width="15" height="15" fill="white" stroke="black" stroke-width="0.5"/>
<rect x="165" y="-225" width="15" height="15" fill="white" stroke="black" stroke-width="0.5"/>
<rect x="165" y="-240" width="15" height="15" fill="white" stroke="black" stroke-width="0.5"/>
<rect x="180" y="0" width="15" height="15" fill="white" stroke="black" stroke-width="0.5"/>
<rect x="180" y="-15" width="15" height="15" fill="white" stroke="black" stroke-width="0.5"/>
<rect x="180" y="-30" width="15" height="15" fill="white" stroke="black" stroke-width="0.5"/>
<rect x="180" y="-45" width="15" height="15" fill="white" stroke="black" stroke-width="0.5"/>
<rect x="180" y="-60" width="15" height="15" fill="white" stroke="black" stroke-width="0.5"/>
<rect x="180" y="-75" width="15" height="15" fill="white" stroke="black" stroke-width="0.5"/>
<rect x="180" y="-90" width="15" height="15" fill="white" stroke="black" stroke-width="0.5"/>
<rect x="180" y="-105" width="15" height="15" fill="white" stroke="black" stroke-width="0.5"/>
<rect x="180" y="-120" width="15" height="15" fill="white" stroke="black" stroke-width="0.5"/>
<rect x="180" y="-135" width="15" height="15" fill="white" stroke="black" stroke-width="0.5"/>
<rect x="180" y="-150" width="15" height="15" fill="white" stroke="black" stroke-width="0.5"/>
<rect x="180" y="-165" width="15" height="15" fill="white" stroke="black" stroke-width="0.5"/>
<rect x="180" y="-180" width="15" height="15" fill="white" stroke="black" stroke-width="0.5"/>
<rect x="180" y="-195" width="15" height="15" fill="white" stroke="black" stroke-width="0.5"/>
<rect x="180" y="-210" width="15" height="15" fill="white" stroke="black" stroke-width="0.5"/>
<rect x="180" y="-225" width="15" height="15" fill="white" stroke="black" stroke-width="0.5"/>
<rect x="180" y="-240" width="15" height="15" fill="white" stroke="black" stroke-width="0.5"/>
<rect x="195" y="0" width="15" height="15" fill="white" stroke="black" stroke-width="0.5"/>
<rect x="195" y="-15" width="15" height="15" fill="white" stroke="black" stroke-width="0.5"/>
<rect x="195" y="-30" width="15" height="15" fill="white" stroke="black" stroke-width="0.5"/>
<rect x="195" y="-45" width="15" height="15" fill="white" stroke="black" stroke-width="0.5"/>
<rect x="195" y="-60" width="15" height="15" fill="white" stroke="black" stroke-width="0.5"/>
<rect x="195" y="-75" width="15" height="15" fill="white" stroke="black" stroke-width="0.5"/>
<rect x="195" y="-90" width="15" height="15" fill="white" stroke="black" stroke-width="0.5"/>
<rect x="195" y="-105" width="15" height="15" fill="white" stroke="black" stroke-width="0.5"/>
<rect x="195" y="-120" width="15" height="15" fill="white" stroke="black" stroke-width="0.5"/>
<rect x="195" y="-135" width="15" height="15" fill="white" stroke="black" stroke-width="0.5"/>
<rect x="195" y="-150" width="15" height="15" fill="white" stroke="black" stroke-width="0.5"/>
<rect x="195" y="-165" width="15" height="15" fill="white" stroke="black" stroke-width="0.5"/>
<rect x="195" y="-180" width="15" height="15" fill="white" stroke="black" stroke-width="0.5"/>
<rect x="195" y="-195" width="15" height="15" fill="white" stroke="black" stroke-width="0.5"/>
<rect x="195" y="-210" width="15" height="15" fill="white" stroke="black" stroke-width="0.5"/>
<rect x="195" y="-225" width="15" height="15" fill="white" stroke="black" stroke-width="0.5"/>
<rect x="195" y="-240" width="15" height="15" fill="white" stroke="black" stroke-width="0.5"/>
<rect x="210" y="0" width="15" height="15" fill="white" stroke="black" stroke-width="0.5"/>
<rect x="210" y="-15" width="15" height="15" fill="white" stroke="black" stroke-width="0.5"/>
<rect x="210" y="-30" width="15" height="15" fill="white" stroke="black" stroke-width="0.5"/>
<rect x="210" y="-45" width="15" height="15" fill="white" stroke="black" stroke-width="0.5"/>
<rect x="210" y="-60" width="15" height="15" fill="white" stroke="black" stroke-width="0.5"/>
<rect x="210" y="-75" width="15" height="15" fill="white" stroke="black" stroke-width="0.5"/>
<rect x="210" y="-90" width="15" height="15" fill="white" stroke="black" stroke-width="0.5"/>
<rect x="210" y="-105" width="15" height="15" fill="white" stroke="black" stroke-width="0.5"/>
<rect x="210" y="-120" width="15" height="15" fill="white" stroke="black" stroke-width="0.5"/>
<rect x="210" y="-135" width="15" height="15" fill="white" stroke="black" stroke-width="0.5"/>
<rect x="210" y="-150" width="15" height="15" fill="white" stroke="black" stroke-width="0.5"/>
<rect x="210" y="-165" width="15" height="15" fill="white" stroke="black" stroke-width="0.5"/>
<rect x="210" y="-180" width="15" height="15" fill="white" stroke="black" stroke-width="0.5"/>
<rect x="210" y="-195" width="15" height="15" fill="white" stroke="black" stroke-width="0.5"/>
<rect x="210" y="-210" width="15" height="15" fill="white" stroke="black" stroke-width="0.5"/>
<rect x="210" y="-225" width="15" height="15" fill="white" stroke="black" stroke-width="0.5"/>
<rect x="210" y="-240" width="15" height="15" fill="white" stroke="black" stroke-width="0.5"/>
<rect x="225" y="0" width="15" height="15" fill="white" stroke="black" stroke-width="0.5"/>
<rect x="225" y="-15" width="15" height="15" fill="white" stroke="black" stroke-width="0.5"/>
<rect x="225" y="-30" width="15" height="15" fill="white" stroke="black" stroke-width="0.5"/>
<rect x="225" y="-45" width="15" height="15" fill="white" stroke="black" stroke-width="0.5"/>
<rect x="225" y="-60" width="15" height="15" fill="white" stroke="black" stroke-width="0.5"/>
<rect x="225" y="-75" width="15" height="15" fill="white" stroke="black" stroke-width="0.5"/>
<rect x="225" y="-90" width="15" height="15" fill="white" stroke="black" stroke-width="0.5"/>
<rect x="225" y="-105" width="15" height="15" fill="white" stroke="black" stroke-width="0.5"/>
<rect x="225" y="-120" width="15" height="15" fill="white" stroke="black" stroke-width="0.5"/>
<rect x="225" y="-135" width="15" height="15" fill="white" stroke="black" stroke-width="0.5"/>
<rect x="225" y="-150" width="15" height="15" fill="white" stroke="black" stroke-width="0.5"/>
<rect x="225" y="-165" width="15" height="15" fill="white" stroke="black" stroke-width="0.5"/>
<rect x="225" y="-180" width="15" height="15" fill="white" stroke="black" stroke-width="0.5"/>
<rect x="225" y="-195" width="15" height="15" fill="white" stroke="black" stroke-width="0.5"/>
<rect x="225" y="-210" width="15" height="15" fill="white" stroke="black" stroke-width="0.5"/>
<rect x="225" y="-225" width="15" height="15" fill="white" stroke="black" stroke-width="0.5"/>
<rect x="225" y="-240" width="15" height="15" fill="white" stroke="black" stroke-width="0.5"/>
<rect x="240" y="0" width="15" height="15" fill="white" stroke="black" stroke-width="0.5"/>
<rect x="240" y="-15" width="15" height="15" fill="white" stroke="black" stroke-width="0.5"/>
<rect x="240" y="-30" width="15" height="15" fill="white" stroke="black" stroke-width="0.5"/>
<rect x="240" y="-45" width="15" height="15" fill="white" stroke="black" stroke-width="0.5"/>
<rect x="240" y="-60" width="15" height="15" fill="white" stroke="black" stroke-width="0.5"/>
<rect x="240" y="-75" width="15" height="15" fill="white" stroke="black" stroke-width="0.5"/>
<rect x="240" y="-90" width="15" height="15" fill="white" stroke="black" stroke-width="0.5"/>
<rect x="240" y="-105" width="15" height="15" fill="white" stroke="black" stroke-width="0.5"/>
<rect x="240" y="-120" width="15" height="15" fill="white" stroke="black" stroke-width="0.5"/>
<rect x="240" y="-135" width="15" height="15" fill="white" stroke="black" stroke-width="0.5"/>
<rect x="240" y="-150" width="15" height="15" fill="white" stroke="black" stroke-width="0.5"/>
<rect x="240" y="-165" width="15" height="15" fill="white" stroke="black" stroke-width="0.5"/>
<rect x="240" y="-180" width="15" height="15" fill="white" stroke="black" stroke-width="0.5"/>
<rect x="240" y="-195" width="15" height="15" fill="white" stroke="black" stroke-width="0.5"/>
<rect x="240" y="-210" width="15" height="15" fill="white" stroke="black" stroke-width="0.5"/>
<rect x="240" y="-225" width="15" height="15" fill="white" stroke="black" stroke-width="0.5"/>
<rect x="240" y="-240" width="15" height="15" fill="white" stroke="black" stroke-width="0.5"/>
<rect x="65" y="-25" width="20" height="5" fill="green" stroke="green" stroke-width="0.5"/>
<rect x="80" y="-25" width="5" height="20" fill="green" stroke="green" stroke-width="0.5"/>
<rect x="80" y="-10" width="80" height="5" fill="green" stroke="green" stroke-width="0.5"/>
<rect x="155" y="-25" width="5" height="20" fill="green" stroke="green" stroke-width="0.5"/>
<rect x="155" y="-25" width="20" height="5" fill="green" stroke="green" stroke-width="0.5"/>
<rect x="170" y="-85" width="5" height="65" fill="green" stroke="green" stroke-width="0.5"/>
<rect x="170" y="-85" width="20" height="5" fill="green" stroke="green" stroke-width="0.5"/>
<rect x="185" y="-100" width="5" height="20" fill="green" stroke="green" stroke-width="0.5"/>
<rect x="185" y="-100" width="20" height="5" fill="green" stroke="green" stroke-width="0.5"/>
<rect x="200" y="-130" width="5" height="35" fill="green" stroke="green" stroke-width="0.5"/>
<rect x="95" y="-25" width="35" height="5" fill="green" stroke="green" stroke-width="0.5"/>
<rect x="125" y="-70" width="5" height="50" fill="green" stroke="green" stroke-width="0.5"/>
<rect x="110" y="-70" width="20" height="5" fill="green" stroke="green" stroke-width="0.5"/>
<rect x="110" y="-85" width="5" height="20" fill="green" stroke="green" stroke-width="0.5"/>
<rect x="95" y="-85" width="20" height="5" fill="green" stroke="green" stroke-width="0.5"/>
<rect x="95" y="-115" width="5" height="35" fill="green" stroke="green" stroke-width="0.5"/>
<rect x="80" y="-115" width="20" height="5" fill="green" stroke="green" stroke-width="0.5"/>
<rect x="80" y="-130" width="5" height="20" fill="green" stroke="green" stroke-width="0.5"/>
<rect x="65" y="-130" width="20" height="5" fill="green" stroke="green" stroke-width="0.5"/>
<rect x="65" y="-175" width="5" height="50" fill="green" stroke="green" stroke-width="0.5"/>
<rect x="95" y="-130" width="65" height="5" fill="green" stroke="green" stroke-width="0.5"/>
<rect x="95" y="-160" width="5" height="35" fill="green" stroke="green" stroke-width="0.5"/>
<rect x="80" y="-160" width="20" height="5" fill="green" stroke="green" stroke-width="0.5"/>
<rect x="80" y="-190" width="5" height="35" fill="green" stroke="green" stroke-width="0.5"/>
<rect x="65" y="-190" width="20" height="5" fill="green" stroke="green" stroke-width="0.5"/>
<rect x="65" y="-205" width="5" height="20" fill="green" stroke="green" stroke-width="0.5"/>
<rect x="20" y="-205" width="50" height="5" fill="green" stroke="green" stroke-width="0.5"/>
<rect x="20" y="-205" width="5" height="95" fill="green" stroke="green" stroke-width="0.5"/>
<rect x="20" y="-115" width="35" height="5" fill="green" stroke="green" stroke-width="0.5"/>
<rect x="50" y="-115" width="5" height="20" fill="green" stroke="green" stroke-width="0.5"/>
<rect x="50" y="-100" width="35" height="5" fill="green" stroke="green" stroke-width="0.5"/>
<rect x="80" y="-100" width="5" height="35" fill="green" stroke="green" stroke-width="0.5"/>
<rect x="80" y="-70" width="20" height="5" fill="green" stroke="green" stroke-width="0.5"/>
<rect x="200" y="-160" width="5" height="20" fill="green" stroke="green" stroke-width="0.5"/>
<rect x="200" y="-145" width="20" height="5" fill="green" stroke="green" stroke-width="0.5"/>
<rect x="215" y="-145" width="5" height="65" fill="green" stroke="green" stroke-width="0.5"/>
<rect x="200" y="-85" width="20" height="5" fill="green" stroke="green" stroke-width="0.5"/>
<rect x="200" y="-85" width="5" height="20" fill="green" stroke="green" stroke-width="0.5"/>
<rect x="185" y="-70" width="20" height="5" fill="green" stroke="green" stroke-width="0.5"/>
<rect x="185" y="-70" width="5" height="65" fill="green" stroke="green" stroke-width="0.5"/>
<rect x="170" y="-10" width="20" height="5" fill="green" stroke="green" stroke-width="0.5"/>
<rect x="170" y="-10" width="5" height="20" fill="green" stroke="green" stroke-width="0.5"/>
<rect x="65" y="5" width="110" height="5" fill="green" stroke="green" stroke-width="0.5"/>
<rect x="65" y="-10" width="5" height="20" fill="green" stroke="green" stroke-width="0.5"/>
<rect x="50" y="-10" width="20" height="5" fill="green" stroke="green" stroke-width="0.5"/>
<rect x="50" y="-25" width="5" height="20" fill="green" stroke="green" stroke-width="0.5"/>
<rect x="35" y="-25" width="20" height="5" fill="green" stroke="green" stroke-width="0.5"/>
<rect x="35" y="-70" width="5" height="50" fill="green" stroke="green" stroke-width="0.5"/>
<rect x="35" y="-70" width="35" height="5" fill="green" stroke="green" stroke-width="0.5"/>
<rect x="30" y="-195" width="30" height="75" fill="red" stroke="red" stroke-width="0.5"/>
<rect x="45" y="-60" width="75" height="30" fill="red" stroke="red" stroke-width="0.5"/>
<rect x="165" y="-210" width="30" height="105" fill="red" stroke="red" stroke-width="0.5"/>
<rect x="60" y="-30" width="15" height="15" fill="#E2DB9B" stroke="#E2DB9B" stroke-width="0.5"/>
<rect x="195" y="-135" width="15" height="15" fill="#E2DB9B" stroke="#E2DB9B" stroke-width="0.5"/>
<rect x="90" y="-30" width="15" height="15" fill="#2DA238" stroke="#2DA238" stroke-width="0.5"/>
<rect x="60" y="-180" width="15" height="15" fill="#2DA238" stroke="#2DA238" stroke-width="0.5"/>
<rect x="150" y="-135" width="15" height="15" fill="#659217" stroke="#659217" stroke-width="0.5"/>
<rect x="90" y="-75" width="15" height="15" fill="#659217" stroke="#659217" stroke-width="0.5"/>
<rect x="195" y="-165" width="15" height="15" fill="#82C9DA" stroke="#82C9DA" stroke-width="0.5"/>
<rect x="60" y="-75" width="15" height="15" fill="#82C9DA" stroke="#82C9DA" stroke-width="0.5"/>
</g>
</svg>
