<svg xmlns="http://www.w3.org/2000/svg"
xmlns:xlink="http://www.w3.org/2020/xlink" version="1.1"
viewBox=" -15 -30 210 210" preserveAspectRatio="xMinYMin meet">
<g transform=" scale(1,-1)">
<rect x="0" y="0" width="15" height="15" fill="white" stroke="black" stroke-width="0.5"/>
<rect x="0" y="-15" width="15" height="15" fill="white" stroke="black" stroke-width="0.5"/>
<rect x="0" y="-30" width="15" height="15" fill="white" stroke="black" stroke-width="0.5"/>
<rect x="0" y="-45" width="15" height="15" fill="white" stroke="black" stroke-width="0.5"/>
<rect x="0" y="-60" width="15" height="15" fill="white" stroke="black" stroke-width="0.5"/>
<rect x="0" y="-75" width="15" height="15" fill="white" stroke="black" stroke-width="0.5"/>
<rect x="0" y="-90" width="15" height="15" fill="white" stroke="black" stroke-width="0.5"/>
<rect x="0" y="-105" width="15" height="15" fill="white" stroke="black" stroke-width="0.5"/>
<rect x="0" y="-120" width="15" height="15" fill="white" stroke="black" stroke-width="0.5"/>
<rect x="0" y="-135" width="15" height="15" fill="white" stroke="black" stroke-width="0.5"/>
<rect x="0" y="-150" width="15" height="15" fill="white" stroke="black" stroke-width="0.5"/>
<rect x="0" y="-165" width="15" height="15" fill="white" stroke="black" stroke-width="0.5"/>
<rect x="15" y="0" width="15" height="15" fill="white" stroke="black" stroke-width="0.5"/>
<rect x="15" y="-15" width="15" height="15" fill="white" stroke="black" stroke-width="0.5"/>
<rect x="15" y="-30" width="15" height="15" fill="white" stroke="black" stroke-width="0.5"/>
<rect x="15" y="-45" width="15" height="15" fill="white" stroke="black" stroke-width="0.5"/>
<rect x="15" y="-60" width="15" height="15" fill="white" stroke="black" stroke-width="0.5"/>
<rect x="15" y="-75" width="15" height="15" fill="white" stroke="black" stroke-width="0.5"/>
<rect x="15" y="-90" width="15" height="15" fill="white" stroke="black" stroke-width="0.5"/>
<rect x="15" y="-105" width="15" height="15" fill="white" stroke="black" stroke-width="0.5"/>
<rect x="15" y="-120" width="15" height="15" fill="white" stroke="black" stroke-width="0.5"/>
<rect x="15" y="-135" width="15" height="15" fill="white" stroke="black" stroke-width="0.5"/>
<rect x="15" y="-150" width="15" height="15" fill="white" stroke="black" stroke-width="0.5"/>
<rect x="15" y="-165" width="15" height="15" fill="white" stroke="black" stroke-width="0.5"/>
<rect x="30" y="0" width="15" height="15" fill="white" stroke="black" stroke-width="0.5"/>
<rect x="30" y="-15" width="15" height="15" fill="white" stroke="black" stroke-width="0.5"/>
<rect x="30" y="-30" width="15" height="15" fill="white" stroke="black" stroke-width="0.5"/>
<rect x="30" y="-45" width="15" height="15" fill="white" stroke="black" stroke-width="0.5"/>
<rect x="30" y="-60" width="15" height="15" fill="white" stroke="black" stroke-width="0.5"/>
<rect x="30" y="-75" width="15" height="15" fill="white" stroke="black" stroke-width="0.5"/>
<rect x="30" y="-90" width="15" height="15" fill="white" stroke="black" stroke-width="0.5"/>
<rect x="30" y="-105" width="15" height="15" fill="white" stroke="black" stroke-width="0.5"/>
<rect x="30" y="-120" width="15" height="15" fill="white" stroke="black" stroke-width="0.5"/>
<rect x="30" y="-135" width="15" height="15" fill="white" stroke="black" stroke-width="0.5"/>
<rect x="30" y="-150" width="15" height="15" fill="white" stroke="black" stroke-width="0.5"/>
<rect x="30" y="-165" width="15" height="15" fill="white" stroke="black" stroke-width="0.5"/>
<rect x="45" y="0" width="15" height="15" fill="white" stroke="black" stroke-width="0.5"/>
<rect x="45" y="-15" width="15" height="15" fill="white" stroke="black" stroke-width="0.5"/>
<rect x="45" y="-30" width="15" height="15" fill="white" stroke="black" stroke-width="0.5"/>
<rect x="45" y="-45" width="15" height="15" fill="white" stroke="black" stroke-width="0.5"/>
<rect x="45" y="-60" width="15" height="15" fill="white" stroke="black" stroke-width="0.5"/>
<rect x="45" y="-75" width="15" height="15" fill="white" stroke="black" stroke-width="0.5"/>
<rect x="45" y="-90" width="15" height="15" fill="white" stroke="black" stroke-width="0.5"/>
<rect x="45" y="-105" width="15" height="15" fill="white" stroke="black" stroke-width="0.5"/>
<rect x="45" y="-120" width="15" height="15" fill="white" stroke="black" stroke-width="0.5"/>
<rect x="45" y="-135" width="15" height="15" fill="white" stroke="black" stroke-width="0.5"/>
<rect x="45" y="-150" width="15" height="15" fill="white" stroke="black" stroke-width="0.5"/>
<rect x="45" y="-165" width="15" height="15" fill="white" stroke="black" stroke-width="0.5"/>
<rect x="60" y="0" width="15" height="15" fill="white" stroke="black" stroke-width="0.5"/>
<rect x="60" y="-15" width="15" height="15" fill="white" stroke="black" stroke-width="0.5"/>
<rect x="60" y="-30" width="15" height="15" fill="white" stroke="black" stroke-width="0.5"/>
<rect x="60" y="-45" width="15" height="15" fill="white" stroke="black" stroke-width="0.5"/>
<rect x="60" y="-60" width="15" height="15" fill="white" stroke="black" stroke-width="0.5"/>
<rect x="60" y="-75" width="15" height="15" fill="white" stroke="black" stroke-width="0.5"/>
<rect x="60" y="-90" width="15" height="15" fill="white" stroke="black" stroke-width="0.5"/>
<rect x="60" y="-105" width="15" height="15" fill="white" stroke="black" stroke-width="0.5"/>
<rect x="60" y="-120" width="15" height="15" fill="white" stroke="black" stroke-width="0.5"/>
<rect x="60" y="-135" width="15" height="15" fill="white" stroke="black" stroke-width="0.5"/>
<rect x="60" y="-150" width="15" height="15" fill="white" stroke="black" stroke-width="0.5"/>
<rect x="60" y="-165" width="15" height="15" fill="white" stroke="black" stroke-width="0.5"/>
<rect x="75" y="0" width="15" height="15" fill="white" stroke="black" stroke-width="0.5"/>
<rect x="75" y="-15" width="15" height="15" fill="white" stroke="black" stroke-width="0.5"/>
<rect x="75" y="-30" width="15" height="15" fill="white" stroke="black" stroke-width="0.5"/>
<rect x="75" y="-45" width="15" height="15" fill="white" stroke="black" stroke-width="0.5"/>
<rect x="75" y="-60" width="15" height="15" fill="white" stroke="black" stroke-width="0.5"/>
<rect x="75" y="-75" width="15" height="15" fill="white" stroke="black" stroke-width="0.5"/>
<rect x="75" y="-90" width="15" height="15" fill="white" stroke="black" stroke-width="0.5"/>
<rect x="75" y="-105" width="15" height="15" fill="white" stroke="black" stroke-width="0.5"/>
<rect x="75" y="-120" width="15" height="15" fill="white" stroke="black" stroke-width="0.5"/>
<rect x="75" y="-135" width="15" height="15" fill="white" stroke="black" stroke-width="0.5"/>
<rect x="75" y="-150" width="15" height="15" fill="white" stroke="black" stroke-width="0.5"/>
<rect x="75" y="-165" width="15" height="15" fill="white" stroke="black" stroke-width="0.5"/>
<rect x="90" y="0" width="15" height="15" fill="white" stroke="black" stroke-width="0.5"/>
<rect x="90" y="-15" width="15" height="15" fill="white" stroke="black" stroke-width="0.5"/>
<rect x="90" y="-30" width="15" height="15" fill="white" stroke="black" stroke-width="0.5"/>
<rect x="90" y="-45" width="15" height="15" fill="white" stroke="black" stroke-width="0.5"/>
<rect x="90" y="-60" width="15" height="15" fill="white" stroke="black" stroke-width="0.5"/>
<rect x="90" y="-75" width="15" height="15" fill="white" stroke="black" stroke-width="0.5"/>
<rect x="90" y="-90" width="15" height="15" fill="white" stroke="black" stroke-width="0.5"/>
<rect x="90" y="-105" width="15" height="15" fill="white" stroke="black" stroke-width="0.5"/>
<rect x="90" y="-120" width="15" height="15" fill="white" stroke="black" stroke-width="0.5"/>
<rect x="90" y="-135" width="15" height="15" fill="white" stroke="black" stroke-width="0.5"/>
<rect x="90" y="-150" width="15" height="15" fill="white" stroke="black" stroke-width="0.5"/>
<rect x="90" y="-165" width="15" height="15" fill="white" stroke="black" stroke-width="0.5"/>
<rect x="105" y="0" width="15" height="15" fill="white" stroke="black" stroke-width="0.5"/>
<rect x="105" y="-15" width="15" height="15" fill="white" stroke="black" stroke-width="0.5"/>
<rect x="105" y="-30" width="15" height="15" fill="white" stroke="black" stroke-width="0.5"/>
<rect x="105" y="-45" width="15" height="15" fill="white" stroke="black" stroke-width="0.5"/>
<rect x="105" y="-60" width="15" height="15" fill="white" stroke="black" stroke-width="0.5"/>
<rect x="105" y="-75" width="15" height="15" fill="white" stroke="black" stroke-width="0.5"/>
<rect x="105" y="-90" width="15" height="15" fill="white" stroke="black" stroke-width="0.5"/>
<rect x="105" y="-105" width="15" height="15" fill="white" stroke="black" stroke-width="0.5"/>
<rect x="105" y="-120" width="15" height="15" fill="white" stroke="black" stroke-width="0.5"/>
<rect x="105" y="-135" width="15" height="15" fill="white" stroke="black" stroke-width="0.5"/>
<rect x="105" y="-150" width="15" height="15" fill="white" stroke="black" stroke-width="0.5"/>
<rect x="105" y="-165" width="15" height="15" fill="white" stroke="black" stroke-width="0.5"/>
<rect x="120" y="0" width="15" height="15" fill="white" stroke="black" stroke-width="0.5"/>
<rect x="120" y="-15" width="15" height="15" fill="white" stroke="black" stroke-width="0.5"/>
<rect x="120" y="-30" width="15" height="15" fill="white" stroke="black" stroke-width="0.5"/>
<rect x="120" y="-45" width="15" height="15" fill="white" stroke="black" stroke-width="0.5"/>
<rect x="120" y="-60" width="15" height="15" fill="white" stroke="black" stroke-width="0.5"/>
<rect x="120" y="-75" width="15" height="15" fill="white" stroke="black" stroke-width="0.5"/>
<rect x="120" y="-90" width="15" height="15" fill="white" stroke="black" stroke-width="0.5"/>
<rect x="120" y="-105" width="15" height="15" fill="white" stroke="black" stroke-width="0.5"/>
<rect x="120" y="-120" width="15" height="15" fill="white" stroke="black" stroke-width="0.5"/>
<rect x="120" y="-135" width="15" height="15" fill="white" stroke="black" stroke-width="0.5"/>
<rect x="120" y="-150" width="15" height="15" fill="white" stroke="black" stroke-width="0.5"/>
<rect x="120" y="-165" width="15" height="15" fill="white" stroke="black" stroke-width="0.5"/>
<rect x="135" y="0" width="15" height="15" fill="white" stroke="black" stroke-width="0.5"/>
<rect x="135" y="-15" width="15" height="15" fill="white" stroke="black" stroke-width="0.5"/>
<rect x="135" y="-30" width="15" height="15" fill="white" stroke="black" stroke-width="0.5"/>
<rect x="135" y="-45" width="15" height="15" fill="white" stroke="black" stroke-width="0.5"/>
<rect x="135" y="-60" width="15" height="15" fill="white" stroke="black" stroke-width="0.5"/>
<rect x="135" y="-75" width="15" height="15" fill="white" stroke="black" stroke-width="0.5"/>
<rect x="135" y="-90" width="15" height="15" fill="white" stroke="black" stroke-width="0.5"/>
<rect x="135" y="-105" width="15" height="15" fill="white" stroke="black" stroke-width="0.5"/>
<rect x="135" y="-120" width="15" height="15" fill="white" stroke="black" stroke-width="0.5"/>
<rect x="135" y="-135" width="15" height="15" fill="white" stroke="black" stroke-width="0.5"/>
<rect x="135" y="-150" width="15" height="15" fill="white" stroke="black" stroke-width="0.5"/>
<rect x="135" y="-165" width="15" height="15" fill="white" stroke="black" stroke-width="0.5"/>
<rect x="150" y="0" width="15" height="15" fill="white" stroke="black" stroke-width="0.5"/>
<rect x="150" y="-15" width="15" height="15" fill="white" stroke="black" stroke-width="0.5"/>
<rect x="150" y="-30" width="15" height="15" fill="white" stroke="black" stroke-width="0.5"/>
<rect x="150" y="-45" width="15" height="15" fill="white" stroke="black" stroke-width="0.5"/>
<rect x="150" y="-60" width="15" height="15" fill="white" stroke="black" stroke-width="0.5"/>
<rect x="150" y="-75" width="15" height="15" fill="white" stroke="black" stroke-width="0.5"/>
<rect x="150" y="-90" width="15" height="15" fill="white" stroke="black" stroke-width="0.5"/>
<rect x="150" y="-105" width="15" height="15" fill="white" stroke="black" stroke-width="0.5"/>
<rect x="150" y="-120" width="15" height="15" fill="white" stroke="black" stroke-width="0.5"/>
<rect x="150" y="-135" width="15" height="15" fill="white" stroke="black" stroke-width="0.5"/>
<rect x="150" y="-150" width="15" height="15" fill="white" stroke="black" stroke-width="0.5"/>
<rect x="150" y="-165" width="15" height="15" fill="white" stroke="black" stroke-width="0.5"/>
<rect x="165" y="0" width="15" height="15" fill="white" stroke="black" stroke-width="0.5"/>
<rect x="165" y="-15" width="15" height="15" fill="white" stroke="black" stroke-width="0.5"/>
<rect x="165" y="-30" width="15" height="15" fill="white" stroke="black" stroke-width="0.5"/>
<rect x="165" y="-45" width="15" height="15" fill="white" stroke="black" stroke-width="0.5"/>
<rect x="165" y="-60" width="15" height="15" fill="white" stroke="black" stroke-width="0.5"/>
<rect x="165" y="-75" width="15" height="15" fill="white" stroke="black" stroke-width="0.5"/>
<rect x="165" y="-90" width="15" height="15" fill="white" stroke="black" stroke-width="0.5"/>
<rect x="165" y="-105" width="15" height="15" fill="white" stroke="black" stroke-width="0.5"/>
<rect x="165" y="-120" width="15" height="15" fill="white" stroke="black" stroke-width="0.5"/>
<rect x="165" y="-135" width="15" height="15" fill="white" stroke="black" stroke-width="0.5"/>
<rect x="165" y="-150" width="15" height="15" fill="white" stroke="black" stroke-width="0.5"/>
<rect x="165" y="-165" width="15" height="15" fill="white" stroke="black" stroke-width="0.5"/>
<rect x="20" y="-25" width="35" height="5" fill="green" stroke="green" stroke-width="0.5"/>
<rect x="20" y="-130" width="5" height="110" fill="green" stroke="green" stroke-width="0.5"/>
<rect x="20" y="-130" width="35" height="5" fill="green" stroke="green" stroke-width="0.5"/>
<rect x="50" y="-145" width="5" height="20" fill="green" stroke="green" stroke-width="0.5"/>
<rect x="50" y="-145" width="95" height="5" fill="green" stroke="green" stroke-width="0.5"/>
<rect x="140" y="-145" width="5" height="20" fill="green" stroke="green" stroke-width="0.5"/>
<rect x="140" y="-130" width="35" height="5" fill="green" stroke="green" stroke-width="0.5"/>
<rect x="170" y="-130" width="5" height="140" fill="green" stroke="green" stroke-width="0.5"/>
<rect x="65" y="-130" width="35" height="5" fill="green" stroke="green" stroke-width="0.5"/>
<rect x="65" y="-130" width="5" height="110" fill="green" stroke="green" stroke-width="0.5"/>
<rect x="65" y="-25" width="35" height="5" fill="green" stroke="green" stroke-width="0.5"/>
<rect x="30" y="-120" width="30" height="90" fill="red" stroke="red" stroke-width="0.5"/>
<rect x="75" y="-120" width="90" height="90" fill="red" stroke="red" stroke-width="0.5"/>
<rect x="0" y="-15" width="165" height="30" fill="red" stroke="red" stroke-width="0.5"/>
<rect x="45" y="-30" width="15" height="15" fill="#E2DB9B" stroke="#E2DB9B" stroke-width="0.5"/>
<rect x="165" y="0" width="15" height="15" fill="#E2DB9B" stroke="#E2DB9B" stroke-width="0.5"/>
<rect x="90" y="-135" width="15" height="15" fill="#2DA238" stroke="#2DA238" stroke-width="0.5"/>
<rect x="90" y="-30" width="15" height="15" fill="#2DA238" stroke="#2DA238" stroke-width="0.5"/>
</g>
</svg>
